<svg xmlns="http://www.w3.org/2000/svg" width="87.932" height="71.5" viewBox="0 0 87.932 71.5"><g transform="translate(0 0.001)"><path d="M329.007,150.7l-76.219,22.814c-6.724,1.956-11.688,6.382-11.688,13.18.024,6.382,4.524,11.2,10.563,12.96h0c1.1.318,77.368,22.545,77.368,22.545Z" transform="translate(-241.1 -150.7)" fill="#d7141c"/><path d="M301.463,262.808c-.244,1.174-1.1,1.932-3.228,1.932h-2.2l.831-3.864h2.176c2.3,0,2.69.685,2.421,1.932m-.856,7.165c-.318,1.467-1.394,2.127-3.937,2.127h-2.2l.9-4.23h2.2c2.543-.025,3.326.636,3.032,2.1M338.435,257.6c-3.374,0-4.206,2.4-4.206,2.4l-3.619,8.583h-.073l-.929-10.979h-5.7a4.385,4.385,0,0,0-3.839,2.494l-4.328,8.509h-.073l-.024-10.979h-3.863c-2.567,0-3.105,1.369-3.228,2.176-.734-1.418-2.788-2.176-6.407-2.176h-9.17c-2.959,0-3.228,2.225-3.228,2.225L286.4,275.23h12.96c3.79,0,5.013-.391,6.382-1.369a5.27,5.27,0,0,0,1.981-3.179c.636-3.008-1.516-4.206-3.937-4.353v-.073c2.225-.514,4.108-1.492,4.817-3.472l.269,12.422h6.187a5.445,5.445,0,0,0,4.866-3.228l3.79-7.458h.073l.88,10.71h5.526a5.8,5.8,0,0,0,5.355-3.472l4.866-10.857-3.032,14.329h3.3c4.279,0,4.842-3.4,4.842-3.4l.66-3.13h4.744c3.643,0,4.181-2.788,4.181-2.788l.2-.929h-8.338l.783-3.643h5.233c3.57,0,4.084-2.641,4.084-2.641l.22-1.051H338.435Z" transform="translate(-275.323 -231.46)" fill="#fff"/></g></svg>